# xmcd CD database file
#
# Track frame offsets:
#	150
#	12155
#	22875
#	36747
#	52613
#	63846
#	76581
#	88401
#	99353
#	110368
#	121576
#	132936
#
# Disc length: 1936 seconds
#
# Revision: 7
# Processed by: cddbd v1.5.2PL0 Copyright (c) Steve Scherf et al.
# Submitted via: CDex 1.70beta2
#
DISCID=85078e0c
DTITLE=Brenda Lee - The Best Of Brenda Lee - The Millennium Collection
DYEAR=1999
DGENRE=Country
TTITLE0=I'm Sorry
TTITLE1=Sweet Nothin's
TTITLE2=I Want To Be Wanted (Per Tutta La Vita)
TTITLE3=You Can Depend On Me
TTITLE4=That's All You Gotta Do
TTITLE5=Emotions
TTITLE6=Break It To Me Gently
TTITLE7=Dum Dum
TTITLE8=Fool #1
TTITLE9=Everybody Loves Me But You
TTITLE10=Losing You
TTITLE11=All Along Am I
EXTD=MCA Nashville. MCAD-70107. 20th Century Masters. The Millennium Collection. Made in USA. YEAR: 1999
EXTT0=
EXTT1=
EXTT2=
EXTT3=
EXTT4=
EXTT5=
EXTT6=
EXTT7=
EXTT8=
EXTT9=
EXTT10=
EXTT11=
PLAYORDER=
